<svg width="44" height="44" viewBox="0 0 44 44" fill="none" xmlns="http://www.w3.org/2000/svg">
    <path d="M43 28.3C43 36.427 36.427 43 28.3 43L30.505 39.325M1 15.7C1 7.573 7.573 1 15.7 1L13.495 4.675M25.5702 6.14503L33.9282 10.975L42.2022 6.16605M33.9282 19.522V10.954M1.73501 29.245L10.072 34.075L18.367 29.266M10.072 42.622V34.054M31.9542 1.441L26.9142 4.23391C25.7802 4.86391 24.8352 6.45989 24.8352 7.76189V13.096C24.8352 14.398 25.7592 15.994 26.9142 16.624L31.9542 19.417C33.0252 20.026 34.7892 20.026 35.8812 19.417L40.9212 16.624C42.0552 15.994 43.0002 14.398 43.0002 13.096V7.76189C43.0002 6.45989 42.0762 4.86391 40.9212 4.23391L35.8812 1.441C34.8102 0.853 33.0462 0.853 31.9542 1.441ZM8.119 24.541L3.07901 27.3339C1.94501 27.9639 1 29.5599 1 30.8619V36.196C1 37.498 1.92401 39.094 3.07901 39.724L8.119 42.517C9.19 43.126 10.954 43.126 12.046 42.517L17.086 39.724C18.22 39.094 19.165 37.498 19.165 36.196V30.8619C19.165 29.5599 18.241 27.9639 17.086 27.3339L12.046 24.541C10.954 23.953 9.19 23.953 8.119 24.541Z" stroke="white" stroke-width="2" stroke-linecap="round" stroke-linejoin="round"/>
</svg>
