<svg width="44" height="39" viewBox="0 0 44 39" fill="none" xmlns="http://www.w3.org/2000/svg">
    <path d="M32.4278 27.1208C35.3045 27.6037 38.4751 27.0998 40.7008 25.6089C43.6614 23.6352 43.6614 20.4016 40.7008 18.4278C38.4541 16.937 35.2415 16.4331 32.3648 16.937M11.4934 27.1208C8.6168 27.6037 5.44619 27.0998 3.22047 25.6089C0.259842 23.6352 0.259842 20.4016 3.22047 18.4278C5.46719 16.937 8.67979 16.4331 11.5564 16.937M34.5906 11.8347C34.4646 11.8137 34.3176 11.8137 34.1916 11.8347C31.294 11.7297 28.9843 9.35696 28.9843 6.41733C28.9843 3.4147 31.3989 1 34.4016 1C37.4042 1 39.8189 3.4357 39.8189 6.41733C39.7979 9.35696 37.4882 11.7297 34.5906 11.8347ZM9.33071 11.8347C9.45669 11.8137 9.60367 11.8137 9.72965 11.8347C12.6273 11.7297 14.937 9.35696 14.937 6.41733C14.937 3.4147 12.5223 1 9.51968 1C6.51706 1 4.10236 3.4357 4.10236 6.41733C4.12335 9.35696 6.43307 11.7297 9.33071 11.8347ZM21.9921 22.5197C21.8661 22.4987 21.7192 22.4987 21.5932 22.5197C18.6955 22.4147 16.3858 20.042 16.3858 17.1024C16.3858 14.0997 18.8005 11.685 21.8031 11.685C24.8058 11.685 27.2205 14.1207 27.2205 17.1024C27.1995 20.042 24.8898 22.4357 21.9921 22.5197ZM15.8819 29.1339C12.9213 31.1076 12.9213 34.3412 15.8819 36.315C19.2415 38.5617 24.7428 38.5617 28.1024 36.315C31.063 34.3412 31.063 31.1076 28.1024 29.1339C24.7638 26.9081 19.2415 26.9081 15.8819 29.1339Z" stroke="white" stroke-width="2" stroke-linecap="round" stroke-linejoin="round"/>
</svg>
