<svg width="43" height="44" viewBox="0 0 43 44" fill="none" xmlns="http://www.w3.org/2000/svg">
    <path d="M2.63779 12.4224L21.1784 23.152L39.593 12.4853M21.1784 42.1756V23.131M31.6771 24.601V16.916L11.7506 5.40939M16.8319 2.00787L5.61937 8.24414C3.0787 9.65096 1 13.1785 1 16.0761V27.9396C1 30.8373 3.0787 34.3648 5.61937 35.7716L16.8319 42.0079C19.2256 43.3307 23.1521 43.3307 25.5458 42.0079L36.7584 35.7716C39.2991 34.3648 41.3778 30.8373 41.3778 27.9396V16.0761C41.3778 13.1785 39.2991 9.65096 36.7584 8.24414L25.5458 2.00787C23.1311 0.664043 19.2256 0.664043 16.8319 2.00787Z" stroke="white" stroke-width="2" stroke-linecap="round" stroke-linejoin="round"/>
</svg>
