<svg width="137" height="137" viewBox="0 0 137 137" fill="none" xmlns="http://www.w3.org/2000/svg">
<rect x="2" y="2" width="133" height="133" rx="27" fill="white"/>
<rect x="1" y="1" width="135" height="135" rx="28" stroke="black" stroke-opacity="0.05" stroke-width="2"/>
<path d="M14.1766 87.81C21.9476 110.048 43.1109 126 68 126C92.8891 126 114.052 110.048 121.823 87.81H14.1766Z" fill="#C8C8C8"/>
<path d="M120.44 46.6233C111.742 26.2662 91.5371 12 68 12C44.4629 12 24.2578 26.2662 15.56 46.6233H120.44Z" fill="#C8C8C8"/>
<path d="M125 69C125 61.0569 123.375 53.4932 120.44 46.6233H15.56C12.6247 53.4932 11 61.0569 11 69C11 75.5911 12.1187 81.921 14.1766 87.81H121.823C123.881 81.921 125 75.5911 125 69Z" fill="#C8C8C8"/>
<path d="M60.837 60.7954C59.9747 60.0562 59.5868 59.6057 59.2529 58.6616L48.6461 68.9173V71.464H63.3165V69.3991C63.3742 69.1415 63.4499 69.0201 63.7986 68.9173C64.135 68.959 64.2403 69.083 64.3496 69.3991V72.1523H45.8223V68.229C44.946 69.0188 44.4175 69.4247 43.2739 69.9498C43.5589 70.2475 43.6823 70.4138 43.756 70.7069V72.29H40.7255C38.9713 71.9598 38.4518 71.4747 38.8659 69.7433C37.8521 70.4757 37.2321 70.8355 35.9731 71.3264C38.4269 75.4477 38.5931 77.3109 34.94 79.173C36.7996 79.5171 39.2791 78.8977 39.9679 76.2821H66.898V69.1926C66.898 67.4719 64.9006 67.1966 63.7986 66.3706C63.1099 66.8524 60.837 67.5407 60.837 68.9173V69.3991H51.1256L59.8727 60.933L60.837 60.7954Z" fill="#C8C8C8"/>
<path d="M68.8954 58.6616V76.2133H74.8875C74.2894 74.3269 73.9422 73.2631 73.51 71.464L72.3391 72.29H71.1682V61.2772L71.9947 60.1759C70.923 59.7928 70.2671 59.4956 68.8954 58.6616Z" fill="#C8C8C8"/>
<path fill-rule="evenodd" clip-rule="evenodd" d="M93.0705 59.2811V76.2133H79.5021V73.1159C79.5467 71.5509 79.7865 70.9629 80.5352 70.3627C81.5707 69.7251 82.233 69.6701 83.4969 69.8809V68.3667L82.9459 68.0913C83.9441 67.2655 84.855 66.5102 85.6845 65.82V72.1523H87.3539V64.4263C88.1308 63.7752 88.817 63.1958 89.4201 62.6808V72.1523H91.0043V61.3078C92.1542 60.2904 92.7979 59.6573 93.0705 59.2811ZM82.8081 71.2575C82.509 71.357 82.3366 71.4032 82.1882 71.8082C82.3221 72.074 82.4501 72.1857 82.8081 72.29C83.0971 72.2306 83.2565 72.1817 83.4969 71.8082C83.3958 71.459 83.256 71.3338 82.8081 71.2575Z" fill="#C8C8C8"/>
<path d="M89.0758 59.6253C89.4845 60.3553 89.489 61.0019 88.8003 61.4837C88.0158 61.6115 87.5821 61.5773 86.8029 61.3078C86.3864 61.7035 86.1002 61.8759 85.3565 61.9655C84.4581 61.8244 84.044 61.6306 83.4969 61.0707C85.0991 61.4817 85.7999 61.3107 86.734 60.3824C88.1996 61.2608 88.6138 60.8849 89.0758 59.6253Z" fill="#C8C8C8"/>
<path d="M86.5962 59.6941C86.7872 59.0627 86.8333 58.7012 86.8029 58.0422C86.734 57.5603 86.1141 57.3539 85.9764 58.0422C86.0959 58.7285 86.2388 59.0907 86.5962 59.6941Z" fill="#C8C8C8"/>
<path d="M95.1367 58.5928V76.2133H101.06C100.784 74.2861 100.029 72.8593 99.8203 71.3264L98.5116 72.3588H97.4785V61.2772L98.2361 60.1759C97.0413 59.6726 96.3652 59.3483 95.1367 58.5928Z" fill="#C8C8C8"/>
<path d="M43.9626 78.2094C43.9626 78.6275 43.6234 78.9665 43.205 78.9665C42.7866 78.9665 42.4474 78.6275 42.4474 78.2094C42.4474 77.7912 42.7866 77.4522 43.205 77.4522C43.6234 77.4522 43.9626 77.7912 43.9626 78.2094Z" fill="#C8C8C8"/>
<path d="M120.9 46.4268C112.126 25.8922 91.7444 11.5 68 11.5C44.2556 11.5 23.8739 25.8922 15.1002 46.4268C12.1389 53.3578 10.5 60.9881 10.5 69C10.5 75.6481 11.6284 82.0336 13.7046 87.9749C21.5436 110.407 42.8918 126.5 68 126.5C93.1082 126.5 114.456 110.407 122.295 87.9749C124.372 82.0336 125.5 75.6481 125.5 69C125.5 60.9881 123.861 53.3578 120.9 46.4268Z" stroke="black" stroke-opacity="0.15"/>
<path d="M72.3759 75.4122C71.7351 77.3293 70.3614 79.04 68.34 79.04H66.06C65.2978 79.04 64.68 78.4222 64.68 77.66V77.66C64.72 75.62 65.18 73.82 66.06 72.26C66.94 70.7 68.44 69.06 70.56 67.34C72.28 65.94 73.4 64.84 73.92 64.04C74.44 63.2 74.7 62.1 74.7 60.74C74.7 58.82 74.1 57.22 72.9 55.94C71.74 54.62 70.28 53.96 68.52 53.96C66.64 53.96 65.08 54.7 63.84 56.18C62.64 57.62 62.04 59.48 62.04 61.76V61.76C62.04 62.1908 61.6908 62.54 61.26 62.54H58.0559C55.8277 62.54 53.9816 60.7001 54.3452 58.5017C54.768 55.9456 55.573 53.8717 56.76 52.28C59.36 48.76 63.22 47 68.34 47C73.02 47 76.72 48.42 79.44 51.26C81.8 53.74 82.98 56.88 82.98 60.68C82.98 63.12 82.48 65.14 81.48 66.74C80.52 68.3 78.66 70.06 75.9 72.02C74.06 73.3 72.94 74.3 72.54 75.02C72.4804 75.1326 72.4257 75.2634 72.3759 75.4122ZM68.46 83.18C69.58 83.18 70.5 83.56 71.22 84.32C71.98 85.04 72.36 85.94 72.36 87.02C72.36 88.1 71.98 89.02 71.22 89.78C70.46 90.54 69.54 90.92 68.46 90.92C67.42 90.92 66.52 90.54 65.76 89.78C65 89.02 64.62 88.1 64.62 87.02C64.62 85.94 65 85.04 65.76 84.32C66.52 83.56 67.42 83.18 68.46 83.18Z" fill="#12161F" fill-opacity="0.63"/>
</svg>
