<svg width="610" height="249" viewBox="0 0 610 249" fill="none" xmlns="http://www.w3.org/2000/svg">
<rect x="267" y="2" width="133" height="133" rx="27" fill="white"/>
<rect x="266" y="1" width="135" height="135" rx="28" stroke="black" stroke-opacity="0.05" stroke-width="2"/>
<path d="M279.177 87.81C286.948 110.048 308.111 126 333 126C357.889 126 379.052 110.048 386.823 87.81H279.177Z" fill="black"/>
<path d="M385.44 46.6233C376.742 26.2662 356.537 12 333 12C309.463 12 289.258 26.2662 280.56 46.6233H385.44Z" fill="#D20000"/>
<path d="M390 69C390 61.0569 388.375 53.4932 385.44 46.6233H280.56C277.625 53.4932 276 61.0569 276 69C276 75.5911 277.119 81.921 279.177 87.81H386.823C388.881 81.921 390 75.5911 390 69Z" fill="white"/>
<path d="M325.837 60.7954C324.975 60.0562 324.587 59.6057 324.253 58.6616L313.646 68.9173V71.464H328.316V69.3991C328.374 69.1415 328.45 69.0201 328.799 68.9173C329.135 68.959 329.24 69.083 329.35 69.3991V72.1523H310.822V68.229C309.946 69.0188 309.418 69.4247 308.274 69.9498C308.559 70.2475 308.682 70.4138 308.756 70.7069V72.29H305.726C303.971 71.9598 303.452 71.4747 303.866 69.7433C302.852 70.4757 302.232 70.8355 300.973 71.3264C303.427 75.4477 303.593 77.3109 299.94 79.173C301.8 79.5171 304.279 78.8977 304.968 76.2821H331.898V69.1926C331.898 67.4719 329.901 67.1966 328.799 66.3706C328.11 66.8524 325.837 67.5407 325.837 68.9173V69.3991H316.126L324.873 60.933L325.837 60.7954Z" fill="#017B3D"/>
<path d="M333.895 58.6616V76.2133H339.887C339.289 74.3269 338.942 73.2631 338.51 71.464L337.339 72.29H336.168V61.2772L336.995 60.1759C335.923 59.7928 335.267 59.4956 333.895 58.6616Z" fill="#017B3D"/>
<path fill-rule="evenodd" clip-rule="evenodd" d="M358.071 59.2811V76.2133H344.502V73.1159C344.547 71.5509 344.787 70.9629 345.535 70.3627C346.571 69.7251 347.233 69.6701 348.497 69.8809V68.3667L347.946 68.0913C348.944 67.2655 349.855 66.5102 350.685 65.82V72.1523H352.354V64.4263C353.131 63.7752 353.817 63.1958 354.42 62.6808V72.1523H356.004V61.3078C357.154 60.2904 357.798 59.6573 358.071 59.2811ZM347.808 71.2575C347.509 71.357 347.337 71.4032 347.188 71.8082C347.322 72.074 347.45 72.1857 347.808 72.29C348.097 72.2306 348.257 72.1817 348.497 71.8082C348.396 71.459 348.256 71.3338 347.808 71.2575Z" fill="#017B3D"/>
<path d="M354.076 59.6253C354.485 60.3553 354.489 61.0019 353.8 61.4837C353.016 61.6115 352.582 61.5773 351.803 61.3078C351.386 61.7035 351.1 61.8759 350.356 61.9655C349.458 61.8244 349.044 61.6306 348.497 61.0707C350.099 61.4817 350.8 61.3107 351.734 60.3824C353.2 61.2608 353.614 60.8849 354.076 59.6253Z" fill="#017B3D"/>
<path d="M351.596 59.6941C351.787 59.0627 351.833 58.7012 351.803 58.0422C351.734 57.5603 351.114 57.3539 350.976 58.0422C351.096 58.7285 351.239 59.0907 351.596 59.6941Z" fill="#017B3D"/>
<path d="M360.137 58.5928V76.2133H366.06C365.784 74.2861 365.029 72.8593 364.82 71.3264L363.512 72.3588H362.479V61.2772L363.236 60.1759C362.041 59.6726 361.365 59.3483 360.137 58.5928Z" fill="#017B3D"/>
<path d="M308.963 78.2094C308.963 78.6275 308.623 78.9665 308.205 78.9665C307.787 78.9665 307.447 78.6275 307.447 78.2094C307.447 77.7912 307.787 77.4522 308.205 77.4522C308.623 77.4522 308.963 77.7912 308.963 78.2094Z" fill="#017B3D"/>
<path d="M385.9 46.4268C377.126 25.8922 356.744 11.5 333 11.5C309.256 11.5 288.874 25.8922 280.1 46.4268C277.139 53.3578 275.5 60.9881 275.5 69C275.5 75.6481 276.628 82.0336 278.705 87.9749C286.544 110.407 307.892 126.5 333 126.5C358.108 126.5 379.456 110.407 387.295 87.9749C389.372 82.0336 390.5 75.6481 390.5 69C390.5 60.9881 388.861 53.3578 385.9 46.4268Z" stroke="black" stroke-opacity="0.15"/>
<rect x="475" y="114" width="133" height="133" rx="27" fill="white"/>
<rect x="474" y="113" width="135" height="135" rx="28" stroke="black" stroke-opacity="0.05" stroke-width="2"/>
<path d="M487.177 199.81C494.948 222.048 516.111 238 541 238C565.889 238 587.052 222.048 594.823 199.81H487.177Z" fill="#C8C8C8"/>
<path d="M593.44 158.623C584.742 138.266 564.537 124 541 124C517.463 124 497.258 138.266 488.56 158.623H593.44Z" fill="#C8C8C8"/>
<path d="M598 181C598 173.057 596.375 165.493 593.44 158.623H488.56C485.625 165.493 484 173.057 484 181C484 187.591 485.119 193.921 487.177 199.81H594.823C596.881 193.921 598 187.591 598 181Z" fill="#C8C8C8"/>
<path d="M533.837 172.795C532.975 172.056 532.587 171.606 532.253 170.662L521.646 180.917V183.464H536.316V181.399C536.374 181.141 536.45 181.02 536.799 180.917C537.135 180.959 537.24 181.083 537.35 181.399V184.152H518.822V180.229C517.946 181.019 517.418 181.425 516.274 181.95C516.559 182.247 516.682 182.414 516.756 182.707V184.29H513.726C511.971 183.96 511.452 183.475 511.866 181.743C510.852 182.476 510.232 182.836 508.973 183.326C511.427 187.448 511.593 189.311 507.94 191.173C509.8 191.517 512.279 190.898 512.968 188.282H539.898V181.193C539.898 179.472 537.901 179.197 536.799 178.371C536.11 178.852 533.837 179.541 533.837 180.917V181.399H524.126L532.873 172.933L533.837 172.795Z" fill="#C8C8C8"/>
<path d="M541.895 170.662V188.213H547.887C547.289 186.327 546.942 185.263 546.51 183.464L545.339 184.29H544.168V173.277L544.995 172.176C543.923 171.793 543.267 171.496 541.895 170.662Z" fill="#C8C8C8"/>
<path fill-rule="evenodd" clip-rule="evenodd" d="M566.071 171.281V188.213H552.502V185.116C552.547 183.551 552.787 182.963 553.535 182.363C554.571 181.725 555.233 181.67 556.497 181.881V180.367L555.946 180.091C556.944 179.265 557.855 178.51 558.685 177.82V184.152H560.354V176.426C561.131 175.775 561.817 175.196 562.42 174.681V184.152H564.004V173.308C565.154 172.29 565.798 171.657 566.071 171.281ZM555.808 183.258C555.509 183.357 555.337 183.403 555.188 183.808C555.322 184.074 555.45 184.186 555.808 184.29C556.097 184.231 556.257 184.182 556.497 183.808C556.396 183.459 556.256 183.334 555.808 183.258Z" fill="#C8C8C8"/>
<path d="M562.076 171.625C562.485 172.355 562.489 173.002 561.8 173.484C561.016 173.612 560.582 173.577 559.803 173.308C559.386 173.703 559.1 173.876 558.356 173.965C557.458 173.824 557.044 173.631 556.497 173.071C558.099 173.482 558.8 173.311 559.734 172.382C561.2 173.261 561.614 172.885 562.076 171.625Z" fill="#C8C8C8"/>
<path d="M559.596 171.694C559.787 171.063 559.833 170.701 559.803 170.042C559.734 169.56 559.114 169.354 558.976 170.042C559.096 170.728 559.239 171.091 559.596 171.694Z" fill="#C8C8C8"/>
<path d="M568.137 170.593V188.213H574.06C573.784 186.286 573.029 184.859 572.82 183.326L571.512 184.359H570.479V173.277L571.236 172.176C570.041 171.673 569.365 171.348 568.137 170.593Z" fill="#C8C8C8"/>
<path d="M516.963 190.209C516.963 190.628 516.623 190.966 516.205 190.966C515.787 190.966 515.447 190.628 515.447 190.209C515.447 189.791 515.787 189.452 516.205 189.452C516.623 189.452 516.963 189.791 516.963 190.209Z" fill="#C8C8C8"/>
<path d="M593.9 158.427C585.126 137.892 564.744 123.5 541 123.5C517.256 123.5 496.874 137.892 488.1 158.427C485.139 165.358 483.5 172.988 483.5 181C483.5 187.648 484.628 194.034 486.705 199.975C494.544 222.407 515.892 238.5 541 238.5C566.108 238.5 587.456 222.407 595.295 199.975C597.372 194.034 598.5 187.648 598.5 181C598.5 172.988 596.861 165.358 593.9 158.427Z" stroke="black" stroke-opacity="0.15"/>
<path d="M545.376 187.412C544.735 189.329 543.361 191.04 541.34 191.04H539.06C538.298 191.04 537.68 190.422 537.68 189.66V189.66C537.72 187.62 538.18 185.82 539.06 184.26C539.94 182.7 541.44 181.06 543.56 179.34C545.28 177.94 546.4 176.84 546.92 176.04C547.44 175.2 547.7 174.1 547.7 172.74C547.7 170.82 547.1 169.22 545.9 167.94C544.74 166.62 543.28 165.96 541.52 165.96C539.64 165.96 538.08 166.7 536.84 168.18C535.64 169.62 535.04 171.48 535.04 173.76V173.76C535.04 174.191 534.691 174.54 534.26 174.54H531.056C528.828 174.54 526.982 172.7 527.345 170.502C527.768 167.946 528.573 165.872 529.76 164.28C532.36 160.76 536.22 159 541.34 159C546.02 159 549.72 160.42 552.44 163.26C554.8 165.74 555.98 168.88 555.98 172.68C555.98 175.12 555.48 177.14 554.48 178.74C553.52 180.3 551.66 182.06 548.9 184.02C547.06 185.3 545.94 186.3 545.54 187.02C545.48 187.133 545.426 187.263 545.376 187.412ZM541.46 195.18C542.58 195.18 543.5 195.56 544.22 196.32C544.98 197.04 545.36 197.94 545.36 199.02C545.36 200.1 544.98 201.02 544.22 201.78C543.46 202.54 542.54 202.92 541.46 202.92C540.42 202.92 539.52 202.54 538.76 201.78C538 201.02 537.62 200.1 537.62 199.02C537.62 197.94 538 197.04 538.76 196.32C539.52 195.56 540.42 195.18 541.46 195.18Z" fill="#12161F" fill-opacity="0.63"/>
<rect x="2" y="90" width="133" height="133" rx="27" fill="white"/>
<rect x="1" y="89" width="135" height="135" rx="28" stroke="black" stroke-opacity="0.05" stroke-width="2"/>
<path d="M14.1766 175.81C21.9476 198.048 43.1109 214 68 214C92.8891 214 114.052 198.048 121.823 175.81H14.1766Z" fill="#C8C8C8"/>
<path d="M120.44 134.623C111.742 114.266 91.5371 100 68 100C44.4629 100 24.2578 114.266 15.56 134.623H120.44Z" fill="#C8C8C8"/>
<path d="M125 157C125 149.057 123.375 141.493 120.44 134.623H15.56C12.6247 141.493 11 149.057 11 157C11 163.591 12.1187 169.921 14.1766 175.81H121.823C123.881 169.921 125 163.591 125 157Z" fill="#C8C8C8"/>
<path d="M60.837 148.795C59.9747 148.056 59.5868 147.606 59.2529 146.662L48.6461 156.917V159.464H63.3165V157.399C63.3742 157.141 63.4499 157.02 63.7986 156.917C64.135 156.959 64.2403 157.083 64.3496 157.399V160.152H45.8223V156.229C44.946 157.019 44.4175 157.425 43.2739 157.95C43.5589 158.247 43.6823 158.414 43.756 158.707V160.29H40.7255C38.9713 159.96 38.4518 159.475 38.8659 157.743C37.8521 158.476 37.2321 158.836 35.9731 159.326C38.4269 163.448 38.5931 165.311 34.94 167.173C36.7996 167.517 39.2791 166.898 39.9679 164.282H66.898V157.193C66.898 155.472 64.9006 155.197 63.7986 154.371C63.1099 154.852 60.837 155.541 60.837 156.917V157.399H51.1256L59.8727 148.933L60.837 148.795Z" fill="#C8C8C8"/>
<path d="M68.8954 146.662V164.213H74.8875C74.2894 162.327 73.9422 161.263 73.51 159.464L72.3391 160.29H71.1682V149.277L71.9947 148.176C70.923 147.793 70.2671 147.496 68.8954 146.662Z" fill="#C8C8C8"/>
<path fill-rule="evenodd" clip-rule="evenodd" d="M93.0705 147.281V164.213H79.5021V161.116C79.5467 159.551 79.7865 158.963 80.5352 158.363C81.5707 157.725 82.233 157.67 83.4969 157.881V156.367L82.9459 156.091C83.9441 155.265 84.855 154.51 85.6845 153.82V160.152H87.3539V152.426C88.1308 151.775 88.817 151.196 89.4201 150.681V160.152H91.0043V149.308C92.1542 148.29 92.7979 147.657 93.0705 147.281ZM82.8081 159.258C82.509 159.357 82.3366 159.403 82.1882 159.808C82.3221 160.074 82.4501 160.186 82.8081 160.29C83.0971 160.231 83.2565 160.182 83.4969 159.808C83.3958 159.459 83.256 159.334 82.8081 159.258Z" fill="#C8C8C8"/>
<path d="M89.0758 147.625C89.4845 148.355 89.489 149.002 88.8003 149.484C88.0158 149.612 87.5821 149.577 86.8029 149.308C86.3864 149.703 86.1002 149.876 85.3565 149.965C84.4581 149.824 84.044 149.631 83.4969 149.071C85.0991 149.482 85.7999 149.311 86.734 148.382C88.1996 149.261 88.6138 148.885 89.0758 147.625Z" fill="#C8C8C8"/>
<path d="M86.5962 147.694C86.7872 147.063 86.8333 146.701 86.8029 146.042C86.734 145.56 86.1141 145.354 85.9764 146.042C86.0959 146.728 86.2388 147.091 86.5962 147.694Z" fill="#C8C8C8"/>
<path d="M95.1367 146.593V164.213H101.06C100.784 162.286 100.029 160.859 99.8203 159.326L98.5116 160.359H97.4785V149.277L98.2361 148.176C97.0413 147.673 96.3652 147.348 95.1367 146.593Z" fill="#C8C8C8"/>
<path d="M43.9626 166.209C43.9626 166.628 43.6234 166.966 43.205 166.966C42.7866 166.966 42.4474 166.628 42.4474 166.209C42.4474 165.791 42.7866 165.452 43.205 165.452C43.6234 165.452 43.9626 165.791 43.9626 166.209Z" fill="#C8C8C8"/>
<path d="M120.9 134.427C112.126 113.892 91.7444 99.5 68 99.5C44.2556 99.5 23.8739 113.892 15.1002 134.427C12.1389 141.358 10.5 148.988 10.5 157C10.5 163.648 11.6284 170.034 13.7046 175.975C21.5436 198.407 42.8918 214.5 68 214.5C93.1082 214.5 114.456 198.407 122.295 175.975C124.372 170.034 125.5 163.648 125.5 157C125.5 148.988 123.861 141.358 120.9 134.427Z" stroke="black" stroke-opacity="0.15"/>
<path d="M72.3759 163.412C71.7351 165.329 70.3614 167.04 68.34 167.04H66.06C65.2978 167.04 64.68 166.422 64.68 165.66V165.66C64.72 163.62 65.18 161.82 66.06 160.26C66.94 158.7 68.44 157.06 70.56 155.34C72.28 153.94 73.4 152.84 73.92 152.04C74.44 151.2 74.7 150.1 74.7 148.74C74.7 146.82 74.1 145.22 72.9 143.94C71.74 142.62 70.28 141.96 68.52 141.96C66.64 141.96 65.08 142.7 63.84 144.18C62.64 145.62 62.04 147.48 62.04 149.76V149.76C62.04 150.191 61.6908 150.54 61.26 150.54H58.0559C55.8277 150.54 53.9816 148.7 54.3452 146.502C54.768 143.946 55.573 141.872 56.76 140.28C59.36 136.76 63.22 135 68.34 135C73.02 135 76.72 136.42 79.44 139.26C81.8 141.74 82.98 144.88 82.98 148.68C82.98 151.12 82.48 153.14 81.48 154.74C80.52 156.3 78.66 158.06 75.9 160.02C74.06 161.3 72.94 162.3 72.54 163.02C72.4804 163.133 72.4257 163.263 72.3759 163.412ZM68.46 171.18C69.58 171.18 70.5 171.56 71.22 172.32C71.98 173.04 72.36 173.94 72.36 175.02C72.36 176.1 71.98 177.02 71.22 177.78C70.46 178.54 69.54 178.92 68.46 178.92C67.42 178.92 66.52 178.54 65.76 177.78C65 177.02 64.62 176.1 64.62 175.02C64.62 173.94 65 173.04 65.76 172.32C66.52 171.56 67.42 171.18 68.46 171.18Z" fill="#12161F" fill-opacity="0.63"/>
</svg>
