<svg width="385" height="408" viewBox="0 0 385 408" fill="none" xmlns="http://www.w3.org/2000/svg">
<rect x="100" y="2" width="133" height="133" rx="27" fill="white"/>
<rect x="99" y="1" width="135" height="135" rx="28" stroke="black" stroke-opacity="0.05" stroke-width="2"/>
<path d="M112.177 87.81C119.948 110.048 141.111 126 166 126C190.889 126 212.052 110.048 219.823 87.81H112.177Z" fill="black"/>
<path d="M218.44 46.6233C209.742 26.2662 189.537 12 166 12C142.463 12 122.258 26.2662 113.56 46.6233H218.44Z" fill="#D20000"/>
<path d="M223 69C223 61.0569 221.375 53.4932 218.44 46.6233H113.56C110.625 53.4932 109 61.0569 109 69C109 75.5911 110.119 81.921 112.177 87.81H219.823C221.881 81.921 223 75.5911 223 69Z" fill="white"/>
<path d="M158.837 60.7954C157.975 60.0562 157.587 59.6057 157.253 58.6616L146.646 68.9173V71.464H161.316V69.3991C161.374 69.1415 161.45 69.0201 161.799 68.9173C162.135 68.959 162.24 69.083 162.35 69.3991V72.1523H143.822V68.229C142.946 69.0188 142.418 69.4247 141.274 69.9498C141.559 70.2475 141.682 70.4138 141.756 70.7069V72.29H138.726C136.971 71.9598 136.452 71.4747 136.866 69.7433C135.852 70.4757 135.232 70.8355 133.973 71.3264C136.427 75.4477 136.593 77.3109 132.94 79.173C134.8 79.5171 137.279 78.8977 137.968 76.2821H164.898V69.1926C164.898 67.4719 162.901 67.1966 161.799 66.3706C161.11 66.8524 158.837 67.5407 158.837 68.9173V69.3991H149.126L157.873 60.933L158.837 60.7954Z" fill="#017B3D"/>
<path d="M166.895 58.6616V76.2133H172.887C172.289 74.3269 171.942 73.2631 171.51 71.464L170.339 72.29H169.168V61.2772L169.995 60.1759C168.923 59.7928 168.267 59.4956 166.895 58.6616Z" fill="#017B3D"/>
<path fill-rule="evenodd" clip-rule="evenodd" d="M191.071 59.2811V76.2133H177.502V73.1159C177.547 71.5509 177.787 70.9629 178.535 70.3627C179.571 69.7251 180.233 69.6701 181.497 69.8809V68.3667L180.946 68.0913C181.944 67.2655 182.855 66.5102 183.685 65.82V72.1523H185.354V64.4263C186.131 63.7752 186.817 63.1958 187.42 62.6808V72.1523H189.004V61.3078C190.154 60.2904 190.798 59.6573 191.071 59.2811ZM180.808 71.2575C180.509 71.357 180.337 71.4032 180.188 71.8082C180.322 72.074 180.45 72.1857 180.808 72.29C181.097 72.2306 181.257 72.1817 181.497 71.8082C181.396 71.459 181.256 71.3338 180.808 71.2575Z" fill="#017B3D"/>
<path d="M187.076 59.6253C187.485 60.3553 187.489 61.0019 186.8 61.4837C186.016 61.6115 185.582 61.5773 184.803 61.3078C184.386 61.7035 184.1 61.8759 183.356 61.9655C182.458 61.8244 182.044 61.6306 181.497 61.0707C183.099 61.4817 183.8 61.3107 184.734 60.3824C186.2 61.2608 186.614 60.8849 187.076 59.6253Z" fill="#017B3D"/>
<path d="M184.596 59.6941C184.787 59.0627 184.833 58.7012 184.803 58.0422C184.734 57.5603 184.114 57.3539 183.976 58.0422C184.096 58.7285 184.239 59.0907 184.596 59.6941Z" fill="#017B3D"/>
<path d="M193.137 58.5928V76.2133H199.06C198.784 74.2861 198.029 72.8593 197.82 71.3264L196.512 72.3588H195.479V61.2772L196.236 60.1759C195.041 59.6726 194.365 59.3483 193.137 58.5928Z" fill="#017B3D"/>
<path d="M141.963 78.2094C141.963 78.6275 141.623 78.9665 141.205 78.9665C140.787 78.9665 140.447 78.6275 140.447 78.2094C140.447 77.7912 140.787 77.4522 141.205 77.4522C141.623 77.4522 141.963 77.7912 141.963 78.2094Z" fill="#017B3D"/>
<path d="M218.9 46.4268C210.126 25.8922 189.744 11.5 166 11.5C142.256 11.5 121.874 25.8922 113.1 46.4268C110.139 53.3578 108.5 60.9881 108.5 69C108.5 75.6481 109.628 82.0336 111.705 87.9749C119.544 110.407 140.892 126.5 166 126.5C191.108 126.5 212.456 110.407 220.295 87.9749C222.372 82.0336 223.5 75.6481 223.5 69C223.5 60.9881 221.861 53.3578 218.9 46.4268Z" stroke="black" stroke-opacity="0.15"/>
<rect x="250" y="157" width="133" height="133" rx="27" fill="white"/>
<rect x="249" y="156" width="135" height="135" rx="28" stroke="black" stroke-opacity="0.05" stroke-width="2"/>
<path d="M262.177 242.81C269.948 265.048 291.111 281 316 281C340.889 281 362.052 265.048 369.823 242.81H262.177Z" fill="#C8C8C8"/>
<path d="M368.44 201.623C359.742 181.266 339.537 167 316 167C292.463 167 272.258 181.266 263.56 201.623H368.44Z" fill="#C8C8C8"/>
<path d="M373 224C373 216.057 371.375 208.493 368.44 201.623H263.56C260.625 208.493 259 216.057 259 224C259 230.591 260.119 236.921 262.177 242.81H369.823C371.881 236.921 373 230.591 373 224Z" fill="#C8C8C8"/>
<path d="M308.837 215.795C307.975 215.056 307.587 214.606 307.253 213.662L296.646 223.917V226.464H311.316V224.399C311.374 224.141 311.45 224.02 311.799 223.917C312.135 223.959 312.24 224.083 312.35 224.399V227.152H293.822V223.229C292.946 224.019 292.418 224.425 291.274 224.95C291.559 225.247 291.682 225.414 291.756 225.707V227.29H288.726C286.971 226.96 286.452 226.475 286.866 224.743C285.852 225.476 285.232 225.836 283.973 226.326C286.427 230.448 286.593 232.311 282.94 234.173C284.8 234.517 287.279 233.898 287.968 231.282H314.898V224.193C314.898 222.472 312.901 222.197 311.799 221.371C311.11 221.852 308.837 222.541 308.837 223.917V224.399H299.126L307.873 215.933L308.837 215.795Z" fill="#C8C8C8"/>
<path d="M316.895 213.662V231.213H322.887C322.289 229.327 321.942 228.263 321.51 226.464L320.339 227.29H319.168V216.277L319.995 215.176C318.923 214.793 318.267 214.496 316.895 213.662Z" fill="#C8C8C8"/>
<path fill-rule="evenodd" clip-rule="evenodd" d="M341.071 214.281V231.213H327.502V228.116C327.547 226.551 327.787 225.963 328.535 225.363C329.571 224.725 330.233 224.67 331.497 224.881V223.367L330.946 223.091C331.944 222.265 332.855 221.51 333.685 220.82V227.152H335.354V219.426C336.131 218.775 336.817 218.196 337.42 217.681V227.152H339.004V216.308C340.154 215.29 340.798 214.657 341.071 214.281ZM330.808 226.258C330.509 226.357 330.337 226.403 330.188 226.808C330.322 227.074 330.45 227.186 330.808 227.29C331.097 227.231 331.257 227.182 331.497 226.808C331.396 226.459 331.256 226.334 330.808 226.258Z" fill="#C8C8C8"/>
<path d="M337.076 214.625C337.485 215.355 337.489 216.002 336.8 216.484C336.016 216.612 335.582 216.577 334.803 216.308C334.386 216.703 334.1 216.876 333.356 216.965C332.458 216.824 332.044 216.631 331.497 216.071C333.099 216.482 333.8 216.311 334.734 215.382C336.2 216.261 336.614 215.885 337.076 214.625Z" fill="#C8C8C8"/>
<path d="M334.596 214.694C334.787 214.063 334.833 213.701 334.803 213.042C334.734 212.56 334.114 212.354 333.976 213.042C334.096 213.728 334.239 214.091 334.596 214.694Z" fill="#C8C8C8"/>
<path d="M343.137 213.593V231.213H349.06C348.784 229.286 348.029 227.859 347.82 226.326L346.512 227.359H345.479V216.277L346.236 215.176C345.041 214.673 344.365 214.348 343.137 213.593Z" fill="#C8C8C8"/>
<path d="M291.963 233.209C291.963 233.628 291.623 233.966 291.205 233.966C290.787 233.966 290.447 233.628 290.447 233.209C290.447 232.791 290.787 232.452 291.205 232.452C291.623 232.452 291.963 232.791 291.963 233.209Z" fill="#C8C8C8"/>
<path d="M368.9 201.427C360.126 180.892 339.744 166.5 316 166.5C292.256 166.5 271.874 180.892 263.1 201.427C260.139 208.358 258.5 215.988 258.5 224C258.5 230.648 259.628 237.034 261.705 242.975C269.544 265.407 290.892 281.5 316 281.5C341.108 281.5 362.456 265.407 370.295 242.975C372.372 237.034 373.5 230.648 373.5 224C373.5 215.988 371.861 208.358 368.9 201.427Z" stroke="black" stroke-opacity="0.15"/>
<path d="M320.376 230.412C319.735 232.329 318.361 234.04 316.34 234.04H314.06C313.298 234.04 312.68 233.422 312.68 232.66V232.66C312.72 230.62 313.18 228.82 314.06 227.26C314.94 225.7 316.44 224.06 318.56 222.34C320.28 220.94 321.4 219.84 321.92 219.04C322.44 218.2 322.7 217.1 322.7 215.74C322.7 213.82 322.1 212.22 320.9 210.94C319.74 209.62 318.28 208.96 316.52 208.96C314.64 208.96 313.08 209.7 311.84 211.18C310.64 212.62 310.04 214.48 310.04 216.76V216.76C310.04 217.191 309.691 217.54 309.26 217.54H306.056C303.828 217.54 301.982 215.7 302.345 213.502C302.768 210.946 303.573 208.872 304.76 207.28C307.36 203.76 311.22 202 316.34 202C321.02 202 324.72 203.42 327.44 206.26C329.8 208.74 330.98 211.88 330.98 215.68C330.98 218.12 330.48 220.14 329.48 221.74C328.52 223.3 326.66 225.06 323.9 227.02C322.06 228.3 320.94 229.3 320.54 230.02C320.48 230.133 320.426 230.263 320.376 230.412ZM316.46 238.18C317.58 238.18 318.5 238.56 319.22 239.32C319.98 240.04 320.36 240.94 320.36 242.02C320.36 243.1 319.98 244.02 319.22 244.78C318.46 245.54 317.54 245.92 316.46 245.92C315.42 245.92 314.52 245.54 313.76 244.78C313 244.02 312.62 243.1 312.62 242.02C312.62 240.94 313 240.04 313.76 239.32C314.52 238.56 315.42 238.18 316.46 238.18Z" fill="#12161F" fill-opacity="0.63"/>
<rect x="2" y="273" width="133" height="133" rx="27" fill="white"/>
<rect x="1" y="272" width="135" height="135" rx="28" stroke="black" stroke-opacity="0.05" stroke-width="2"/>
<path d="M14.1766 358.81C21.9476 381.048 43.1109 397 68 397C92.8891 397 114.052 381.048 121.823 358.81H14.1766Z" fill="#C8C8C8"/>
<path d="M120.44 317.623C111.742 297.266 91.5371 283 68 283C44.4629 283 24.2578 297.266 15.56 317.623H120.44Z" fill="#C8C8C8"/>
<path d="M125 340C125 332.057 123.375 324.493 120.44 317.623H15.56C12.6247 324.493 11 332.057 11 340C11 346.591 12.1187 352.921 14.1766 358.81H121.823C123.881 352.921 125 346.591 125 340Z" fill="#C8C8C8"/>
<path d="M60.837 331.795C59.9747 331.056 59.5868 330.606 59.2529 329.662L48.6461 339.917V342.464H63.3165V340.399C63.3742 340.141 63.4499 340.02 63.7986 339.917C64.135 339.959 64.2403 340.083 64.3496 340.399V343.152H45.8223V339.229C44.946 340.019 44.4175 340.425 43.2739 340.95C43.5589 341.247 43.6823 341.414 43.756 341.707V343.29H40.7255C38.9713 342.96 38.4518 342.475 38.8659 340.743C37.8521 341.476 37.2321 341.836 35.9731 342.326C38.4269 346.448 38.5931 348.311 34.94 350.173C36.7996 350.517 39.2791 349.898 39.9679 347.282H66.898V340.193C66.898 338.472 64.9006 338.197 63.7986 337.371C63.1099 337.852 60.837 338.541 60.837 339.917V340.399H51.1256L59.8727 331.933L60.837 331.795Z" fill="#C8C8C8"/>
<path d="M68.8954 329.662V347.213H74.8875C74.2894 345.327 73.9422 344.263 73.51 342.464L72.3391 343.29H71.1682V332.277L71.9947 331.176C70.923 330.793 70.2671 330.496 68.8954 329.662Z" fill="#C8C8C8"/>
<path fill-rule="evenodd" clip-rule="evenodd" d="M93.0705 330.281V347.213H79.5021V344.116C79.5467 342.551 79.7865 341.963 80.5352 341.363C81.5707 340.725 82.233 340.67 83.4969 340.881V339.367L82.9459 339.091C83.9441 338.265 84.855 337.51 85.6845 336.82V343.152H87.3539V335.426C88.1308 334.775 88.817 334.196 89.4201 333.681V343.152H91.0043V332.308C92.1542 331.29 92.7979 330.657 93.0705 330.281ZM82.8081 342.258C82.509 342.357 82.3366 342.403 82.1882 342.808C82.3221 343.074 82.4501 343.186 82.8081 343.29C83.0971 343.231 83.2565 343.182 83.4969 342.808C83.3958 342.459 83.256 342.334 82.8081 342.258Z" fill="#C8C8C8"/>
<path d="M89.0758 330.625C89.4845 331.355 89.489 332.002 88.8003 332.484C88.0158 332.612 87.5821 332.577 86.8029 332.308C86.3864 332.703 86.1002 332.876 85.3565 332.965C84.4581 332.824 84.044 332.631 83.4969 332.071C85.0991 332.482 85.7999 332.311 86.734 331.382C88.1996 332.261 88.6138 331.885 89.0758 330.625Z" fill="#C8C8C8"/>
<path d="M86.5962 330.694C86.7872 330.063 86.8333 329.701 86.8029 329.042C86.734 328.56 86.1141 328.354 85.9764 329.042C86.0959 329.728 86.2388 330.091 86.5962 330.694Z" fill="#C8C8C8"/>
<path d="M95.1367 329.593V347.213H101.06C100.784 345.286 100.029 343.859 99.8203 342.326L98.5116 343.359H97.4785V332.277L98.2361 331.176C97.0413 330.673 96.3652 330.348 95.1367 329.593Z" fill="#C8C8C8"/>
<path d="M43.9626 349.209C43.9626 349.628 43.6234 349.966 43.205 349.966C42.7866 349.966 42.4474 349.628 42.4474 349.209C42.4474 348.791 42.7866 348.452 43.205 348.452C43.6234 348.452 43.9626 348.791 43.9626 349.209Z" fill="#C8C8C8"/>
<path d="M120.9 317.427C112.126 296.892 91.7444 282.5 68 282.5C44.2556 282.5 23.8739 296.892 15.1002 317.427C12.1389 324.358 10.5 331.988 10.5 340C10.5 346.648 11.6284 353.034 13.7046 358.975C21.5436 381.407 42.8918 397.5 68 397.5C93.1082 397.5 114.456 381.407 122.295 358.975C124.372 353.034 125.5 346.648 125.5 340C125.5 331.988 123.861 324.358 120.9 317.427Z" stroke="black" stroke-opacity="0.15"/>
<path d="M72.3759 346.412C71.7351 348.329 70.3614 350.04 68.34 350.04H66.06C65.2978 350.04 64.68 349.422 64.68 348.66V348.66C64.72 346.62 65.18 344.82 66.06 343.26C66.94 341.7 68.44 340.06 70.56 338.34C72.28 336.94 73.4 335.84 73.92 335.04C74.44 334.2 74.7 333.1 74.7 331.74C74.7 329.82 74.1 328.22 72.9 326.94C71.74 325.62 70.28 324.96 68.52 324.96C66.64 324.96 65.08 325.7 63.84 327.18C62.64 328.62 62.04 330.48 62.04 332.76V332.76C62.04 333.191 61.6908 333.54 61.26 333.54H58.0559C55.8277 333.54 53.9816 331.7 54.3452 329.502C54.768 326.946 55.573 324.872 56.76 323.28C59.36 319.76 63.22 318 68.34 318C73.02 318 76.72 319.42 79.44 322.26C81.8 324.74 82.98 327.88 82.98 331.68C82.98 334.12 82.48 336.14 81.48 337.74C80.52 339.3 78.66 341.06 75.9 343.02C74.06 344.3 72.94 345.3 72.54 346.02C72.4804 346.133 72.4257 346.263 72.3759 346.412ZM68.46 354.18C69.58 354.18 70.5 354.56 71.22 355.32C71.98 356.04 72.36 356.94 72.36 358.02C72.36 359.1 71.98 360.02 71.22 360.78C70.46 361.54 69.54 361.92 68.46 361.92C67.42 361.92 66.52 361.54 65.76 360.78C65 360.02 64.62 359.1 64.62 358.02C64.62 356.94 65 356.04 65.76 355.32C66.52 354.56 67.42 354.18 68.46 354.18Z" fill="#12161F" fill-opacity="0.63"/>
</svg>
