<svg width="24" height="25" viewBox="0 0 24 25" fill="none" xmlns="http://www.w3.org/2000/svg">
    <path d="M12 17.5C11.7167 17.5 11.479 17.404 11.287 17.212C11.0957 17.0207 11 16.7833 11 16.5V13.5H7.975C7.69167 13.5 7.45833 13.404 7.275 13.212C7.09167 13.0207 7 12.7833 7 12.5C7 12.2167 7.096 11.979 7.288 11.787C7.47933 11.5957 7.71667 11.5 8 11.5H11V8.475C11 8.19167 11.0957 7.95833 11.287 7.775C11.479 7.59167 11.7167 7.5 12 7.5C12.2833 7.5 12.5207 7.59567 12.712 7.787C12.904 7.979 13 8.21667 13 8.5V11.5H16.025C16.3083 11.5 16.5417 11.5957 16.725 11.787C16.9083 11.979 17 12.2167 17 12.5C17 12.7833 16.9043 13.0207 16.713 13.212C16.521 13.404 16.2833 13.5 16 13.5H13V16.525C13 16.8083 12.904 17.0417 12.712 17.225C12.5207 17.4083 12.2833 17.5 12 17.5ZM12 22.5C13.3833 22.5 14.6833 22.2373 15.9 21.712C17.1167 21.1873 18.175 20.475 19.075 19.575C19.975 18.675 20.6873 17.6167 21.212 16.4C21.7373 15.1833 22 13.8833 22 12.5C22 11.1167 21.7373 9.81667 21.212 8.6C20.6873 7.38333 19.975 6.325 19.075 5.425C18.175 4.525 17.1167 3.81233 15.9 3.287C14.6833 2.76233 13.3833 2.5 12 2.5C10.6167 2.5 9.31667 2.76233 8.1 3.287C6.88333 3.81233 5.825 4.525 4.925 5.425C4.025 6.325 3.31267 7.38333 2.788 8.6C2.26267 9.81667 2 11.1167 2 12.5C2 13.8833 2.26267 15.1833 2.788 16.4C3.31267 17.6167 4.025 18.675 4.925 19.575C5.825 20.475 6.88333 21.1873 8.1 21.712C9.31667 22.2373 10.6167 22.5 12 22.5Z" fill="#3461FF"/>
</svg>
